<svg width="56.998" height="44.5977" viewBox="0 0 15.0807 11.7998" xml:space="preserve" xmlns="http://www.w3.org/2000/svg">
    <g style="display:inline"><path style="opacity:1;fill:#0077be;stroke-width:.199964;stroke-linecap:round;stroke-linejoin:round" d="M107.8213 125.4981v-11.7998h15.0807v11.7998z" transform="translate(-107.8213 -113.6983)"/><g style="opacity:1;stroke-width:.839766"><path style="-inkscape-font-specification:Junicode;fill:#fff;stroke-width:.186586" d="M106.192-126.4359c0-.4657.1479-.8686.4435-1.2087.2983-.3427.6318-.514 1.0007-.514.369 0 .6672.1281.8948.3845.2276.2564.3414.4657.3414.628 0 .1621-.0667.2445-.2002.2472h-1.762c-.0785 0-.1177.0862-.1177.259 0 .4186.0994.7783.2982 1.0792.2015.2982.4788.4473.832.4473.2642 0 .5272-.0785.7888-.2354a.0811.0811 0 0 1 .0432-.0118c.0314 0 .0589.0144.0824.0432.0183.0183.0275.0458.0275.0824a.0368.0368 0 0 1-.0157.0314c-.4134.3662-.8202.5494-1.2205.5494-.4003 0-.7404-.1805-1.0203-.5416-.2773-.361-.416-.7744-.416-1.24zm.6907-.781c0 .0367.0314.055.0942.055h1.2597c.0394 0 .059-.0222.059-.0667 0-.1151-.072-.2603-.2159-.4356-.1413-.1753-.289-.263-.4434-.263-.1701 0-.318.0577-.4435.1727-.123.1125-.2224.2721-.2983.4788a.165.165 0 0 0-.0117.0589z" transform="matrix(1.1908 0 0 1.1908 -125.323 156.6075)" aria-label="eBL"/><path d="M117.2847 117.4677h2.5135c.187 0 .2805-.209.2805-.6268 0-.0309.0323-.0464.0969-.0464.0646 0 .0969.0154.0969.0464-.0102.252-.0154.5174-.0154.796 0 .2785.003.4786.007.6002.005.1216.007.2609.007.4179 0 .3825-.0688.703-.2065.9617-.1377.2587-.3433.388-.617.388-.3381 0-.5846-.2166-.7392-.65-.012-.0332-.023-.0498-.0331-.0498-.012 0-.022.0166-.0306.0498-.0595.2388-.1683.4577-.3263.6567-.1564.2011-.3646.3017-.6246.3017-.2413 0-.452-.116-.6322-.3482-.1802-.23-.2702-.6666-.2702-1.31 0-.1414.003-.2962.0102-.4642.005-.168.007-.3847.007-.65 0-.2653-.007-.4886-.018-.67 0-.0286.0324-.043.097-.043s.0969.0143.0969.043c0 .398.0994.597.2982.597zm1.5372.5306c-.0611 0-.0918.0874-.0918.262 0 .7827.237 1.174.7112 1.174.4504 0 .6756-.4212.6756-1.2635 0-.115-.057-.1725-.1708-.1725zm-1.3052 0c-.374 0-.5609.2034-.5609.6102 0 .7363.2677 1.1044.803 1.1044.3586 0 .6042-.2454.7368-.7363.0493-.1923.0748-.4797.0765-.8622 0-.0774-.0255-.116-.0765-.116zm-.255 3.6148h2.5365c.1955 0 .2932-.2089.2932-.6267 0-.031.0323-.0465.097-.0465.0645 0 .0968.0155.0968.0465-.008.1017-.0126.3913-.0126.8688 0 .4776.005.7661.0126.8656 0 .0287-.0323.0431-.0969.0431-.0645 0-.0969-.0143-.0969-.0431 0-.3847-.0977-.577-.2932-.577h-2.2815a.7068.7068 0 0 0-.2524.0463c-.08.0333-.1496.094-.209.1825-.0579.0905-.0868.211-.0868.3614l.0331 1.038c.008.2764.086.4909.232.6434.1462.1548.3272.2322.543.2322.0221 0 .0331.043.0331.1293 0 .0862-.011.1293-.033.1293h-.8974c-.0442 0-.0697-.0276-.0765-.0829a1.4918 1.4918 0 0 1-.0102-.1857c.002-.3161.005-.7937.0102-1.4326.005-.639.007-1.0823.007-1.3299 0-.2476-.007-.5295-.018-.8456 0-.0288.0324-.0431.097-.0431.0645 0 .0969.0143.0969.043 0 .3892.0918.5837.2753.5837z" style="-inkscape-font-specification:Junicode;fill:#fff;stroke-width:.186586" transform="matrix(0 -1.27175 1.11501 0 -125.323 156.6075)"/></g>
    </g>
</svg>
