<?xml version="1.0" encoding="UTF-8" standalone="no"?>
<!-- Generator: Adobe Illustrator 22.0.1, SVG Export Plug-In . SVG Version: 6.00 Build 0)  -->

<svg
   version="1.1"
   id="Ebene_1"
   x="0px"
   y="0px"
   viewBox="0 0 451.89998 89.000002"
   xml:space="preserve"
   width="451.89999"
   height="89"
   xmlns:xlink="http://www.w3.org/1999/xlink"
   xmlns="http://www.w3.org/2000/svg"
   >
<defs
   id="defs7" />
<style
   type="text/css"
   id="style1">
	.st0{clip-path:url(#SVGID_2_);fill:#003160;}
	.st1{fill:#003160;}
	.st2{fill:#283583;}
	.st3{clip-path:url(#SVGID_4_);fill:#283583;}
</style>
<g
   id="g3"
   transform="translate(-195,-253.3)">
	<defs
   id="defs1">
		<rect
   id="SVGID_1_"
   x="195"
   y="253.3"
   width="451.89999"
   height="89" />
	</defs>
	<clipPath
   id="SVGID_2_">
		<use
   xlink:href="#SVGID_1_"
   style="overflow:visible"
   id="use1" />
	</clipPath>
	<path
   class="st0"
   d="m 243.1,296.7 h -7.6 v 30.8 l 6.8,0.6 c 10.1,0 13.9,-7.3 13.9,-16.4 -0.1,-10.1 -5.8,-15 -13.1,-15"
   clip-path="url(#SVGID_2_)"
   id="path1" />
	<path
   class="st0"
   d="m 253.3,280.2 c 0,-7.6 -3.6,-12.8 -10.2,-12.8 l -7.6,0.6 v 27.2 h 7.3 c 6.7,0 10.5,-6.4 10.5,-15"
   clip-path="url(#SVGID_2_)"
   id="path2" />
	<path
   class="st0"
   d="m 432.8,267.4 -5.8,0.6 -18.8,60.4 -6.5,1.5 -14.5,-44.2 -12.5,42.6 -6.5,1.5 -13.7,-42 c -6.8,0.7 -10.2,7.7 -10.2,18.2 0,10.1 3.5,17.8 9.4,17.8 2.3,0 3.4,-0.6 6.4,-2.7 l 1.7,-1.1 0.2,1.2 -12.1,9.3 c -9.8,0 -17,-9 -17,-20.3 0,-12.1 5.8,-21.8 19.8,-24.6 0.3,0 0.7,0 1,0 L 348,268 l -5.1,-0.6 v -1.2 h 24.7 v 1.2 l -7,0.6 15.6,49.6 10.1,-34.7 -4.8,-14.8 -5,-0.6 v -1.2 h 24.6 v 1.2 l -6.9,0.6 15.5,49.6 15.4,-49.6 -7.5,-0.6 v -1.2 h 15.2 z m -101.5,61.8 h -25.8 v -1.1 l 7.3,-0.7 -6.7,-20.6 h -21.8 l -7.1,20.6 7.4,0.7 v 1.1 H 269.3 V 328 l 5.8,-0.6 20.9,-58.8 8.5,-3.6 21,62.4 5.8,0.6 z m -87.5,0 H 216.4 V 328 l 6.5,-0.6 V 268 l -6.5,-0.6 v -1.2 h 30.3 c 11.5,0 17.4,6.7 17.4,13.8 0,9.1 -8.5,15.3 -20,15.7 16.2,0.3 22.8,7.2 22.8,15.5 0.2,11.4 -8.9,17.5 -23.1,18 M 195,342.3 h 258 v -89 H 195 Z"
   clip-path="url(#SVGID_2_)"
   id="path3" />
</g>
<polygon
   class="st1"
   points="295.7,274.4 284.9,305.2 305.5,305.2 "
   id="polygon3"
   transform="translate(-195,-253.3)" />
<rect
   x="288.39999"
   y="0"
   class="st2"
   width="1.7"
   height="89"
   id="rect3" />
<g
   id="g7"
   transform="translate(-195,-253.3)">
	<defs
   id="defs3">
		<rect
   id="SVGID_3_"
   x="195"
   y="253.3"
   width="451.89999"
   height="89" />
	</defs>
	<clipPath
   id="SVGID_4_">
		<use
   xlink:href="#SVGID_3_"
   style="overflow:visible"
   id="use3" />
	</clipPath>
	<path
   class="st3"
   d="m 646.9,329.1 v -9.4 h -1.2 v 2.4 c 0,1.6 0.1,4.3 0.1,5.5 -0.3,-0.6 -0.7,-1.3 -1,-1.9 l -3.6,-5.9 h -1.7 v 9.4 h 1.2 v -2.6 c 0,-1.6 0,-4.3 -0.1,-5.3 0.3,0.6 0.6,1.2 1,1.9 l 3.7,6.1 h 1.6 z m -11.7,0 V 328 h -3.6 v -3.3 h 3.4 v -1 h -3.4 v -3 h 3.6 v -1.1 h -4.9 v 9.4 h 4.9 z m -8.4,-8.4 v -1.1 h -6.7 v 1.1 h 2.7 v 8.4 h 1.3 v -8.4 z m -9.6,0 v -1.1 h -4.8 v 9.4 h 1.3 v -4.3 h 3.3 v -1 h -3.3 v -3.1 h 3.5 z m -10.7,5.1 h -3.4 l 1.3,-3.6 c 0.2,-0.4 0.3,-0.9 0.4,-1.3 v 0 c 0.1,0.4 0.2,0.8 0.4,1.3 z m 2.5,3.3 -3.5,-9.4 H 604 l -3.4,9.4 h 1.3 l 0.8,-2.2 h 4 l 0.8,2.2 z m -11.6,0 v -9.4 h -1.3 v 4 h -4.8 v -4 H 590 v 9.4 h 1.3 v -4.4 h 4.8 v 4.4 z m -11.3,-0.4 -0.2,-1.1 c -0.6,0.3 -1.4,0.5 -2.1,0.5 -2.2,0 -3.2,-1.3 -3.2,-3.7 0,-2.1 0.9,-3.7 3.1,-3.7 0.7,0 1.4,0.1 2.1,0.4 l 0.2,-1.2 c -0.7,-0.2 -1.4,-0.3 -2.2,-0.3 -3.2,0 -4.6,2.2 -4.6,5 0,2.7 1.3,4.6 4.3,4.6 0.9,0 1.9,-0.2 2.6,-0.5 M 576,326.3 c 0,-3 -4.3,-2.2 -4.3,-4.3 0,-0.9 0.6,-1.5 1.9,-1.5 0.5,0 1.1,0.1 1.6,0.3 l 0.2,-1.1 c -0.5,-0.1 -1.2,-0.2 -1.7,-0.2 -2.1,0 -3.3,1.1 -3.3,2.7 0,3 4.3,2.2 4.3,4.3 0,1.2 -1,1.6 -2,1.6 -0.7,0 -1.4,-0.1 -2,-0.4 l -0.2,1.2 c 0.6,0.2 1.3,0.3 2.1,0.3 2,0 3.4,-1.2 3.4,-2.9 m -9.7,2.8 v -9.4 h -1.2 v 2.4 c 0,1.6 0.1,4.3 0.1,5.5 -0.3,-0.6 -0.7,-1.3 -1,-1.9 l -3.6,-5.9 h -1.7 v 9.4 h 1.2 v -2.6 c 0,-1.6 0,-4.3 -0.1,-5.3 0.3,0.6 0.6,1.2 1,1.9 l 3.7,6.1 h 1.6 z m -11.7,0 V 328 H 551 v -3.3 h 3.4 v -1 H 551 v -3 h 3.6 v -1.1 h -4.9 v 9.4 h 4.9 z m -8.7,-2.8 c 0,-3 -4.3,-2.2 -4.3,-4.3 0,-0.9 0.6,-1.5 1.9,-1.5 0.5,0 1.1,0.1 1.6,0.3 l 0.2,-1.1 c -0.5,-0.1 -1.2,-0.2 -1.7,-0.2 -2.1,0 -3.3,1.1 -3.3,2.7 0,3 4.3,2.2 4.3,4.3 0,1.2 -1,1.6 -2,1.6 -0.7,0 -1.4,-0.1 -2,-0.4 l -0.2,1.2 c 0.6,0.2 1.3,0.3 2.1,0.3 2,0 3.4,-1.2 3.4,-2.9 m -9,0 c 0,-3 -4.3,-2.2 -4.3,-4.3 0,-0.9 0.6,-1.5 1.9,-1.5 0.5,0 1.1,0.1 1.6,0.3 l 0.2,-1.1 c -0.5,-0.1 -1.2,-0.2 -1.7,-0.2 -2.1,0 -3.3,1.1 -3.3,2.7 0,3 4.3,2.2 4.3,4.3 0,1.2 -1,1.6 -2,1.6 -0.7,0 -1.4,-0.1 -2,-0.4 l -0.2,1.2 c 0.6,0.2 1.3,0.3 2.1,0.3 2,0 3.4,-1.2 3.4,-2.9 m -9.7,-6.7 h -1.3 v 9.4 h 1.3 z m -5,0 h -1.3 l -1.6,6.4 c -0.1,0.5 -0.2,1 -0.3,1.5 v 0 c -0.1,-0.6 -0.2,-1.2 -0.4,-1.7 l -1.8,-6.3 h -1.5 l -1.8,6.2 c -0.2,0.6 -0.3,1.1 -0.4,1.8 v 0 c -0.1,-0.6 -0.2,-1.2 -0.4,-1.8 l -1.6,-6.2 h -1.4 l 2.5,9.4 h 1.5 l 1.8,-6.4 c 0.1,-0.6 0.3,-1.1 0.3,-1.6 v 0 c 0.1,0.5 0.2,1.1 0.3,1.6 l 1.8,6.4 h 1.6 z"
   clip-path="url(#SVGID_4_)"
   id="path4" />
	<path
   class="st3"
   d="m 535.1,304.5 c 0,1 -0.8,1.7 -2.1,1.7 -0.4,0 -0.7,0 -0.8,0 V 303 c 0.3,0 0.5,0 0.9,0 1.3,-0.1 2,0.4 2,1.5 m 2,6.9 -2.6,-3.4 c -0.2,-0.3 -0.5,-0.7 -0.8,-1 1.5,-0.1 2.8,-1 2.8,-2.7 0,-1.8 -1.3,-2.5 -3.2,-2.5 -1,0 -1.7,0 -2.4,0.1 v 9.4 h 1.3 v -4.2 h 0.2 l 3.1,4.2 h 1.6 z m -10.5,0 v -1.1 H 523 V 307 h 3.4 v -1 H 523 v -3 h 3.6 v -1.1 h -4.9 v 9.4 h 4.9 z m -10,-4.8 c 0,2.6 -1.6,3.7 -3.8,3.7 -0.4,0 -0.9,0 -1.2,-0.1 V 303 c 0.3,0 0.9,0 1.4,0 2.5,-0.1 3.6,1.2 3.6,3.6 m 1.4,-0.1 c 0,-3.2 -1.8,-4.7 -4.8,-4.7 -1,0 -2.1,0 -2.8,0.1 v 9.4 c 0.7,0 1.4,0.1 2.4,0.1 3,0 5.2,-1.6 5.2,-4.9"
   clip-path="url(#SVGID_4_)"
   id="path5" />
	<path
   class="st3"
   d="m 588.4,293.7 v -1.1 h -3.6 v -3.3 h 3.4 v -1 h -3.4 v -3 h 3.6 v -1.1 h -4.9 v 9.4 h 4.9 z m -9.6,-9.5 h -1.3 v 9.4 h 1.3 z m -5.3,9.5 -1.4,-9.4 h -1.6 l -2,6 c -0.2,0.5 -0.3,1.1 -0.5,1.8 v 0 c -0.2,-0.6 -0.4,-1.4 -0.5,-1.9 l -2,-6 h -1.6 l -1.4,9.4 h 1.3 l 0.6,-5.4 c 0.1,-0.9 0.2,-1.7 0.3,-2.5 v 0 c 0.1,0.7 0.4,1.4 0.6,2.2 l 1.9,5.7 h 1.4 l 2,-6.1 c 0.2,-0.7 0.4,-1.3 0.5,-1.8 v 0 c 0.1,0.6 0.2,1.4 0.3,2.4 l 0.8,5.5 h 1.3 z m -14.8,0 v -1.1 h -3.6 v -3.3 h 3.4 v -1 h -3.4 v -3 h 3.6 v -1.1 h -4.9 v 9.4 h 4.9 z m -10,-4.8 c 0,2.6 -1.6,3.7 -3.8,3.7 -0.4,0 -0.9,0 -1.2,-0.1 v -7.3 c 0.3,0 0.9,0 1.4,0 2.4,0 3.6,1.3 3.6,3.7 m 1.3,-0.1 c 0,-3.2 -1.8,-4.7 -4.8,-4.7 -1,0 -2.1,0 -2.8,0.1 v 9.4 c 0.7,0 1.4,0.1 2.4,0.1 3,0 5.2,-1.6 5.2,-4.9 m -13.5,1.6 h -3.4 l 1.3,-3.6 c 0.2,-0.4 0.3,-0.9 0.4,-1.3 v 0 c 0.1,0.4 0.2,0.8 0.4,1.3 z m 2.5,3.3 -3.5,-9.4 H 534 l -3.4,9.4 h 1.3 l 0.8,-2.2 h 4 l 0.8,2.2 z m -10.6,0 -4.1,-4.9 4,-4.6 h -1.6 l -3.8,4.5 v -4.5 h -1.3 v 9.4 h 1.3 V 289 l 3.7,4.7 z m -12.7,-3.3 h -3.4 l 1.3,-3.6 c 0.2,-0.4 0.3,-0.9 0.4,-1.3 v 0 c 0.1,0.4 0.2,0.8 0.4,1.3 z m 2.6,3.3 -3.5,-9.4 h -1.5 l -3.4,9.4 h 1.3 l 0.8,-2.2 h 4 l 0.8,2.2 z"
   clip-path="url(#SVGID_4_)"
   id="path6" />
	<path
   class="st3"
   d="m 600.3,276 v -1.1 h -3.6 v -3.3 h 3.4 v -1 h -3.4 v -3 h 3.6 v -1.1 h -4.9 v 9.4 h 4.9 z m -9.6,0 v -9.4 h -1.3 v 4 h -4.8 v -4 h -1.3 v 9.4 h 1.3 v -4.4 h 4.8 v 4.4 z m -11.3,-0.4 -0.2,-1.1 c -0.6,0.3 -1.4,0.5 -2.1,0.5 -2.2,0 -3.2,-1.3 -3.2,-3.7 0,-2.1 0.9,-3.7 3.1,-3.7 0.7,0 1.4,0.1 2.1,0.4 l 0.2,-1.2 c -0.7,-0.2 -1.4,-0.3 -2.2,-0.3 -3.2,0 -4.6,2.2 -4.6,5 0,2.7 1.3,4.6 4.3,4.6 1,0 1.9,-0.2 2.6,-0.5 m -10.1,-2.4 c 0,-3 -4.3,-2.2 -4.3,-4.3 0,-0.9 0.6,-1.5 1.9,-1.5 0.5,0 1.1,0.1 1.6,0.3 l 0.2,-1.1 c -0.5,-0.1 -1.2,-0.2 -1.7,-0.2 -2.1,0 -3.3,1.1 -3.3,2.7 0,3 4.3,2.2 4.3,4.3 0,1.2 -1,1.6 -2,1.6 -0.7,0 -1.4,-0.1 -2,-0.4 l -0.2,1.2 c 0.6,0.2 1.3,0.3 2.1,0.3 2,0 3.4,-1.2 3.4,-2.9 m -9.6,-6.7 h -1.3 v 9.4 h 1.3 z m -7.1,2.6 c 0,1 -0.8,1.7 -2.1,1.7 -0.4,0 -0.7,0 -0.8,0 v -3.2 c 0.3,0 0.5,0 0.9,0 1.3,-0.1 2,0.4 2,1.5 m 2,6.9 -2.6,-3.4 c -0.2,-0.3 -0.5,-0.7 -0.8,-1 1.5,-0.1 2.8,-1 2.8,-2.7 0,-1.8 -1.3,-2.5 -3.2,-2.5 -1,0 -1.7,0 -2.4,0.1 v 9.4 h 1.3 v -4.2 h 0.2 l 3.1,4.2 h 1.6 z m -10.4,0 v -1.1 h -3.6 v -3.3 h 3.4 v -1 h -3.4 v -3 h 3.6 v -1.1 h -4.9 v 9.4 h 4.9 z m -8.1,-9.5 h -1.3 l -1.5,3 c -0.3,0.6 -0.6,1.2 -0.8,1.8 v 0 c -0.2,-0.5 -0.4,-1.1 -0.7,-1.6 l -1.5,-3.2 h -1.4 l 3,6 v 3.4 h 1.3 v -3.4 z m -11.2,6.2 h -3.4 l 1.3,-3.6 c 0.2,-0.4 0.3,-0.9 0.4,-1.3 v 0 c 0.1,0.4 0.2,0.8 0.4,1.3 z m 2.6,3.3 -3.5,-9.4 h -1.5 l -3.4,9.4 h 1.3 l 0.8,-2.2 h 4 l 0.8,2.2 z m -12.4,-2.8 c 0,1 -0.7,1.8 -2.2,1.8 -0.4,0 -1,0 -1.2,-0.1 v -3.3 c 0.2,0 0.7,0 0.9,0 1.4,0 2.5,0.4 2.5,1.6 m -0.3,-4.2 c 0,1 -0.7,1.7 -2.3,1.7 -0.3,0 -0.6,0 -0.9,0 v -3.1 c 0.4,0 0.8,0 1.3,0 1.4,-0.1 1.9,0.5 1.9,1.4 m 1.6,4.1 c 0,-1.2 -0.8,-2 -1.9,-2.2 v 0 c 1,-0.3 1.6,-1.2 1.6,-2.2 0,-1.4 -1,-2.3 -3,-2.3 -1.1,0 -2.1,0 -2.8,0 v 9.4 c 0.9,0 1.7,0 2.4,0 2.8,0.2 3.7,-1.4 3.7,-2.7"
   clip-path="url(#SVGID_4_)"
   id="path7" />
</g>
</svg>
