<?xml version="1.0" encoding="utf-8"?>
<!-- Generator: Adobe Illustrator 24.3.0, SVG Export Plug-In . SVG Version: 6.00 Build 0)  -->
<svg version="1.1" id="LMU_Logo_x2C__Invertiert_in_Schwarz_x2C__CMYK"
	 xmlns="http://www.w3.org/2000/svg" xmlns:xlink="http://www.w3.org/1999/xlink" x="0px" y="0px" viewBox="0 0 137.48 65.2"
	 style="enable-background:new 0 0 137.48 65.2;" xml:space="preserve">
<path d="M0,0v65.2h65.2V0H64.9H0z M64.61,64.61c-0.58,0-63.45,0-64.03,0c0-0.58,0-63.45,0-64.03c0.58,0,63.45,0,64.03,0
	C64.61,1.16,64.61,64.03,64.61,64.61z M137.19,0H72.28v65.2h65.2V0H137.19z M136.9,64.61c-0.58,0-63.46,0-64.03,0
	c0-0.58,0-63.45,0-64.03c0.58,0,63.46,0,64.03,0C136.9,1.16,136.9,64.03,136.9,64.61z M4.64,37.76h2.2v20.78h6.4v1.66h-8.6V37.76z
	 M25.83,55.12c0,0.15,0.08,0.23,0.23,0.23c0.11,0,0.17-0.08,0.17-0.23c0.2-1.46,0.46-3.05,0.77-4.79c0.31-1.73,0.62-3.43,0.93-5.07
	c0.31-1.64,0.61-3.14,0.9-4.49c0.29-1.35,0.51-2.35,0.67-3.02h7.2V60.2h-4.33V41.3c0-0.11-0.08-0.17-0.24-0.17
	c-0.09,0-0.13,0.05-0.13,0.17c-0.18,0.88-0.37,1.87-0.57,2.97c-0.2,1.09-0.45,2.37-0.73,3.84c-0.29,1.47-0.64,3.19-1.05,5.15
	c-0.41,1.97-0.89,4.28-1.45,6.93h-4.5c-0.56-2.61-1.03-4.86-1.42-6.76c-0.39-1.9-0.73-3.57-1.02-5c-0.29-1.44-0.54-2.72-0.77-3.84
	c-0.22-1.13-0.44-2.22-0.67-3.28c0-0.11-0.08-0.17-0.23-0.17c-0.09,0-0.13,0.05-0.13,0.17V60.2H15.5V37.76h7.23
	c0.11,0.49,0.25,1.12,0.4,1.89c0.15,0.77,0.33,1.64,0.52,2.6c0.19,0.96,0.38,1.99,0.58,3.08c0.2,1.1,0.4,2.21,0.6,3.35
	c0.2,1.14,0.38,2.25,0.55,3.35C25.55,53.12,25.7,54.15,25.83,55.12z M39.43,51.64V37.76h7.7v14.65c0,1.04,0.24,1.78,0.72,2.22
	c0.48,0.44,1.12,0.66,1.92,0.66c0.8,0,1.45-0.22,1.93-0.66c0.49-0.44,0.73-1.18,0.73-2.22V37.76h7.66v13.89
	c0,1.66-0.25,3.07-0.75,4.23c-0.5,1.16-1.2,2.1-2.1,2.83c-0.9,0.73-1.99,1.26-3.26,1.59c-1.28,0.33-2.68,0.5-4.22,0.5
	c-1.51,0-2.9-0.17-4.16-0.5c-1.27-0.33-2.36-0.86-3.27-1.59c-0.91-0.73-1.62-1.67-2.13-2.83C39.68,54.71,39.43,53.3,39.43,51.64z
	 M80.34,33.91h-3.26v-4.77h0.89v4.06h2.37V33.91z M83.58,34.01c0.99,0,1.97-0.48,1.97-2v-2.86h-0.89v2.94
	c0,0.79-0.36,1.27-1.08,1.27c-0.74,0-1.1-0.51-1.1-1.27v-2.94h-0.89v2.86C81.59,33.64,82.56,34.01,83.58,34.01z M88.81,33.91h-1.44
	v-4.77h1.44c1.7,0,2.46,0.98,2.46,2.35C91.26,33.06,90.35,33.91,88.81,33.91z M88.77,33.23c1.01,0,1.57-0.45,1.57-1.74
	c0-1.12-0.54-1.67-1.57-1.67h-0.51v3.41H88.77z M94.64,33.91l0.92-3.34l0.92,3.34h0.95l1.45-4.77h-0.93l-0.96,3.73l-0.91-3.34h-0.94
	l-0.92,3.34l-0.97-3.73h-0.99l1.45,4.77H94.64z M101.12,29.15h-0.89v4.77h0.89V29.15z M105.09,34.01c0.81,0,1.37-0.2,1.78-0.45
	v-2.29h-1.93v0.65h1.07v1.21c-0.12,0.11-0.4,0.23-0.88,0.23c-0.84,0-1.44-0.77-1.44-1.88c0-1.08,0.6-1.8,1.4-1.8
	c0.63,0,0.99,0.27,1.25,0.56l0.36-0.67c-0.32-0.29-0.83-0.53-1.61-0.53c-1.11,0-2.32,0.79-2.32,2.44
	C102.77,33.02,103.63,34.01,105.09,34.01z M109.96,31.48h-1.87v0.59h1.87V31.48z M80.9,37.9l-1.24,3.16l-1.31-3.16h-1.11l-0.28,4.77
	h0.87l0.14-3.62l1.24,2.97h0.81l1.21-2.97l0.16,3.62h0.89l-0.28-4.77H80.9z M86.3,37.9l1.89,4.77H87.2l-0.42-1.16h-1.96l-0.42,1.16
	h-0.94l1.9-4.77H86.3z M86.55,40.87l-0.76-2.08l-0.75,2.08H86.55z M89.03,37.9l1.69,2.29l-1.84,2.47h1.07l1.32-1.92l1.29,1.92h1.12
	l-1.83-2.47l1.69-2.29h-1.07l-1.15,1.77l-1.18-1.77H89.03z M95.88,37.9h-0.89v4.77h0.89V37.9z M102.11,42.67H103l-0.28-4.77h-1.11
	l-1.24,3.16l-1.31-3.16h-1.11l-0.28,4.77h0.87l0.14-3.62l1.24,2.97h0.81l1.21-2.97L102.11,42.67z M104.79,42.67h0.89V37.9h-0.89
	V42.67z M108.48,37.9h-0.89v4.77h3.26v-0.71h-2.37V37.9z M113.26,37.9h-0.89v4.77h0.89V37.9z M119.3,42.67h-0.99l-0.42-1.16h-1.96
	l-0.42,1.16h-0.94l1.9-4.77h0.93L119.3,42.67z M117.67,40.87l-0.76-2.08l-0.75,2.08H117.67z M124.63,37.9h-0.88v3.55l-2-3.55h-1.16
	v4.77h0.88v-3.55l2,3.55h1.16V37.9z M128.73,40.05l-0.95-0.4c-0.29-0.12-0.6-0.29-0.6-0.63c0-0.27,0.24-0.58,0.77-0.58
	c0.6,0,0.93,0.26,1.21,0.6l0.38-0.59c-0.34-0.41-0.95-0.65-1.58-0.65c-0.77,0-1.68,0.45-1.68,1.37c0,0.58,0.4,0.97,0.91,1.19
	l0.95,0.4c0.37,0.16,0.65,0.33,0.65,0.71c0,0.31-0.28,0.65-0.88,0.65c-0.61,0-1.01-0.27-1.35-0.66l-0.38,0.6
	c0.22,0.27,0.77,0.7,1.71,0.7c1.44,0,1.83-0.93,1.83-1.42C129.71,40.63,129.27,40.29,128.73,40.05z M130.85,40.24v0.59h1.87v-0.59
	H130.85z M77.01,46.66v2.86c0,1.63,0.96,2,1.99,2c0.99,0,1.97-0.48,1.97-2v-2.86h-0.89v2.94c0,0.79-0.36,1.27-1.08,1.27
	c-0.74,0-1.1-0.51-1.1-1.27v-2.94H77.01z M86.83,51.42v-4.77h-0.88v3.55l-2-3.55h-1.16v4.77h0.88v-3.55l2,3.55H86.83z M88.74,51.42
	h0.89v-4.77h-0.89V51.42z M93.21,50.53l-1.39-3.87h-1.01l1.9,4.77h0.94l1.9-4.77H94.6L93.21,50.53z M97.78,49.29h2.14v-0.68h-2.14
	v-1.25h2.32v-0.69h-3.21v4.77h3.3v-0.71h-2.41V49.29z M104.3,49.67l1.23,1.75h-1.06l-0.96-1.44c-0.25-0.37-0.46-0.62-0.68-0.62
	h-0.22v2.06h-0.89v-4.77h1.83c0.84,0,1.6,0.44,1.6,1.33c0,0.9-0.81,1.23-1.22,1.28C104.06,49.35,104.24,49.59,104.3,49.67z
	 M104.22,47.99c0-0.36-0.28-0.65-0.86-0.65h-0.77v1.38h0.77C104.05,48.71,104.22,48.38,104.22,47.99z M109.04,48.81l-0.94-0.4
	c-0.29-0.12-0.6-0.29-0.6-0.63c0-0.27,0.24-0.58,0.77-0.58c0.6,0,0.93,0.27,1.21,0.6l0.38-0.59c-0.34-0.41-0.95-0.65-1.58-0.65
	c-0.77,0-1.68,0.45-1.68,1.37c0,0.59,0.4,0.97,0.91,1.19l0.95,0.4c0.37,0.16,0.65,0.33,0.65,0.71c0,0.31-0.28,0.65-0.88,0.65
	c-0.61,0-1.01-0.27-1.35-0.66l-0.38,0.6c0.23,0.26,0.77,0.7,1.71,0.7c1.44,0,1.83-0.93,1.83-1.42
	C110.02,49.38,109.58,49.04,109.04,48.81z M112.51,46.66h-0.89v4.77h0.89V46.66z M113.84,47.37h1.61v4.06h0.89v-4.06h1.61v-0.71
	h-4.11V47.37z M121.49,46.66l1.89,4.77h-0.98l-0.42-1.16h-1.96l-0.42,1.16h-0.94l1.9-4.77H121.49z M121.74,49.63l-0.76-2.08
	l-0.75,2.08H121.74z M120.33,46.22c0.25,0,0.47-0.22,0.47-0.46c0-0.24-0.21-0.46-0.47-0.46c-0.26,0-0.46,0.22-0.46,0.46
	C119.87,46,120.08,46.22,120.33,46.22z M122.12,45.77c0-0.24-0.2-0.46-0.46-0.46s-0.46,0.22-0.46,0.46c0,0.24,0.21,0.46,0.46,0.46
	S122.12,46,122.12,45.77z M124.09,47.37h1.61v4.06h0.89v-4.06h1.61v-0.71h-4.11V47.37z M80.9,55.41l-1.24,3.16l-1.31-3.16h-1.11
	l-0.28,4.77h0.87l0.14-3.62l1.24,2.97h0.81l1.21-2.97l0.16,3.62h0.89l-0.28-4.77H80.9z M87.06,58.36c0,0.79-0.36,1.27-1.08,1.27
	c-0.74,0-1.1-0.51-1.1-1.27v-2.94h-0.89v2.86c0,1.63,0.96,2,1.99,2c0.99,0,1.97-0.48,1.97-2v-2.86h-0.89V58.36z M86.11,54.52
	c0,0.24,0.21,0.46,0.47,0.46c0.25,0,0.47-0.22,0.47-0.46c0-0.24-0.21-0.46-0.47-0.46C86.32,54.07,86.11,54.28,86.11,54.52z
	 M85.25,54.07c-0.26,0-0.46,0.22-0.46,0.46c0,0.24,0.21,0.46,0.46,0.46c0.25,0,0.47-0.22,0.47-0.46
	C85.73,54.28,85.51,54.07,85.25,54.07z M92.93,58.97l-2-3.55h-1.16v4.77h0.88v-3.55l2,3.55h1.16v-4.77h-0.87V58.97z M97.72,59.62
	c-0.78,0-1.36-0.87-1.36-1.86c0-1.01,0.55-1.79,1.36-1.79c0.69,0,0.95,0.31,1.22,0.61l0.35-0.66c-0.36-0.38-0.9-0.61-1.58-0.61
	c-1.39,0-2.27,1.16-2.27,2.44c0,1.31,0.73,2.51,2.27,2.51c0.75,0,1.16-0.17,1.71-0.59L99.07,59C98.67,59.43,98.29,59.62,97.72,59.62
	z M103.83,57.37h-2.13v-1.96h-0.89v4.77h0.89v-2.16h2.13v2.16h0.89v-4.77h-0.89V57.37z M107.49,58.04h2.14v-0.68h-2.14v-1.25h2.32
	v-0.7h-3.21v4.77h3.3v-0.71h-2.41V58.04z M114.59,58.97l-2-3.55h-1.16v4.77h0.88v-3.55l2,3.55h1.16v-4.77h-0.88V58.97z"/>
</svg>
